<svg width="20" height="20" viewBox="0 0 20 20" fill="none" xmlns="http://www.w3.org/2000/svg">
<path fill-rule="evenodd" clip-rule="evenodd" d="M12.0769 10.3529C13.4364 10.3529 14.5385 11.4064 14.5385 12.7059C14.5385 12.9094 14.5114 13.1069 14.4606 13.2953C14.4865 13.2945 14.5124 13.2941 14.5385 13.2941C15.8979 13.2941 17 14.3476 17 15.6471C17 16.9466 15.8979 18 14.5385 18H4.07692C2.37759 18 1 16.6832 1 15.0588C1 13.6158 2.0872 12.4155 3.52134 12.1655C3.48206 11.9591 3.46154 11.7466 3.46154 11.5294C3.46154 9.58017 5.11464 8 7.15385 8C8.90317 8 10.3684 9.16285 10.7496 10.724C11.1326 10.4891 11.5881 10.3529 12.0769 10.3529Z" fill="#222222"/>
<path fill-rule="evenodd" clip-rule="evenodd" d="M16.118 3.64019C15.7687 2.68484 14.8247 2 13.7146 2C12.3543 2 11.2432 3.02775 11.1701 4.32194C11.087 4.31136 11.0026 4.30389 10.9164 4.30389C9.85791 4.30389 9 5.1313 9 6.152C9 7.1727 9.85791 8 10.9164 8C11.7043 8 15.4875 8 16.7019 8C17.9711 8 19 7.00813 19 5.78389C19 4.55976 17.9711 3.56779 16.7019 3.56779C16.5001 3.56779 16.3043 3.59309 16.118 3.64019Z" fill="#222222"/>
</svg>
